<svg xmlns="http://www.w3.org/2000/svg" viewBox="0 0 600 200">
  <!-- Gradient Definition -->
  <defs>
    <linearGradient id="kaygeeGradient" x1="0%" y1="0%" x2="100%" y2="100%">
      <stop offset="0%" style="stop-color:#00f3ff;stop-opacity:1" />
      <stop offset="50%" style="stop-color:#a78bfa;stop-opacity:1" />
      <stop offset="100%" style="stop-color:#e100ff;stop-opacity:1" />
    </linearGradient>
    
    <linearGradient id="textGradient" x1="0%" y1="0%" x2="100%" y2="0%">
      <stop offset="0%" style="stop-color:#ffffff;stop-opacity:1" />
      <stop offset="50%" style="stop-color:#00f3ff;stop-opacity:1" />
      <stop offset="100%" style="stop-color:#a78bfa;stop-opacity:1" />
    </linearGradient>
    
    <filter id="elegantGlow">
      <feGaussianBlur stdDeviation="6" result="blur"/>
      <feMerge>
        <feMergeNode in="blur"/>
        <feMergeNode in="SourceGraphic"/>
      </feMerge>
    </filter>
  </defs>
  
  <!-- Main Symbol - Stylized K/G fusion with neural patterns -->
  <g filter="url(#elegantGlow)">
    <!-- Outer ring representing cognitive boundary -->
    <circle cx="100" cy="100" r="70" fill="none" stroke="url(#kaygeeGradient)" stroke-width="3" opacity="0.8"/>
    
    <!-- Inner neural core -->
    <path d="M 70 100 Q 85 85 100 85 Q 115 85 130 100 Q 115 115 100 115 Q 85 115 70 100 Z" 
          fill="url(#kaygeeGradient)" opacity="0.9"/>
    
    <!-- Circuit nodes -->
    <circle cx="85" cy="90" r="5" fill="#00f3ff"/>
    <circle cx="100" cy="85" r="5" fill="#a78bfa"/>
    <circle cx="115" cy="90" r="5" fill="#e100ff"/>
    <circle cx="85" cy="110" r="5" fill="#00f3ff"/>
    <circle cx="115" cy="110" r="5" fill="#a78bfa"/>
    <circle cx="100" cy="115" r="5" fill="#e100ff"/>
    
    <!-- Neural connections -->
    <line x1="87" y1="92" x2="98" y2="87" stroke="#00f3ff" stroke-width="2" opacity="0.7"/>
    <line x1="102" y1="87" x2="113" y2="92" stroke="#00f3ff" stroke-width="2" opacity="0.7"/>
    <line x1="87" y1="108" x2="98" y2="113" stroke="#a78bfa" stroke-width="2" opacity="0.7"/>
    <line x1="102" y1="113" x2="113" y2="108" stroke="#a78bfa" stroke-width="2" opacity="0.7"/>
    <line x1="88" y1="95" x2="112" y2="95" stroke="#e100ff" stroke-width="2" opacity="0.7"/>
    
    <!-- Central consciousness node -->
    <circle cx="100" cy="100" r="8" fill="#ffffff" opacity="0.9"/>
    <circle cx="100" cy="100" r="5" fill="#00f3ff"/>
  </g>
  
  <!-- Typography -->
  <text x="200" y="80" font-family="'Segoe UI', Tahoma, Geneva, Verdana, sans-serif" 
        font-size="52" font-weight="900" fill="url(#textGradient)">KAY GEE</text>
  <text x="200" y="110" font-family="'Segoe UI', Tahoma, Geneva, Verdana, sans-serif" 
        font-size="18" font-weight="600" fill="#a78bfa">COGNITIVE OS v1.0</text>
  <text x="200" y="130" font-family="'Segoe UI', Tahoma, Geneva, Verdana, sans-serif" 
        font-size="12" font-weight="400" fill="#a1a1aa">AUTONOMOUS REASONING PLATFORM</text>
</svg>